<svg version="1.1" id="Layer_1" xmlns="http://www.w3.org/2000/svg" xmlns:xlink="http://www.w3.org/1999/xlink" x="0px" y="0px"
	 width="100%" viewBox="0 0 898 898" enable-background="new 0 0 898 898" xml:space="preserve">
<path fill="#FF0000" opacity="1.000000" stroke="none" 
	d="
M417.000000,0.999997 
	C440.354218,1.000000 463.708466,1.000000 487.351044,1.412420 
	C488.985596,2.216436 490.308929,2.814117 491.681671,2.966578 
	C501.465057,4.053171 511.379395,4.405334 521.021912,6.216509 
	C537.644531,9.338780 554.180969,13.021725 570.606567,17.066660 
	C595.008545,23.075865 618.402344,32.075768 641.153748,42.664330 
	C665.176270,53.844486 688.358215,66.648102 709.650940,82.449226 
	C725.428467,94.157646 741.038879,106.244705 755.586365,119.419006 
	C774.208435,136.283264 791.134888,154.882324 806.490601,174.884674 
	C822.135010,195.263138 836.012634,216.720276 848.087463,239.378708 
	C863.168091,267.677338 874.906982,297.338257 883.465393,328.188599 
	C887.375183,342.282257 890.179749,356.709503 892.905762,371.095337 
	C894.790955,381.043793 895.650818,391.184998 897.093323,401.222168 
	C897.189575,401.892273 898.339905,402.410919 899.000000,403.000000 
	C899.000000,433.354218 899.000000,463.708466 898.597656,494.340210 
	C897.806030,495.294464 897.183105,495.931946 897.061890,496.653687 
	C894.006836,514.842407 891.677795,533.183228 887.841797,551.203796 
	C881.414185,581.399597 871.207153,610.480286 857.764221,638.241333 
	C849.732117,654.828369 840.257568,670.740112 830.998291,686.704163 
	C817.548401,709.893372 800.980713,730.882141 782.793701,750.431885 
	C766.569763,767.871399 749.406250,784.412720 730.536438,799.167236 
	C710.402893,814.909790 689.431335,829.331970 666.963501,841.410278 
	C629.884705,861.343323 590.964844,876.361572 549.656128,885.361389 
	C523.941711,890.963684 498.010529,894.282043 471.867310,895.786682 
	C457.167847,896.632629 442.322357,895.734558 427.584473,894.891296 
	C413.657654,894.094421 399.707001,892.878723 385.910889,890.862000 
	C371.246948,888.718262 356.547638,886.191895 342.237793,882.415466 
	C325.916107,878.108093 309.899231,872.545898 293.942535,866.976990 
	C264.528076,856.711304 237.136505,842.280945 210.959732,825.485046 
	C192.047623,813.350464 173.717346,800.369263 157.458618,784.821838 
	C141.586517,769.643982 125.280396,754.714661 111.098396,738.032471 
	C96.973175,721.417053 84.786758,703.070984 72.581970,684.924438 
	C53.715912,656.873535 40.084480,626.139709 29.066494,594.292847 
	C20.104319,568.388123 13.167952,541.915344 9.995082,514.594116 
	C8.235368,499.441376 5.569621,484.289062 5.266968,469.097626 
	C4.858302,448.584930 5.999122,428.016663 7.122825,407.507690 
	C7.767417,395.743073 9.074305,383.936615 11.171129,372.345795 
	C15.665014,347.504639 21.195496,322.807098 30.520803,299.300995 
	C38.680840,278.732208 47.553333,258.379669 57.350281,238.543610 
	C69.310677,214.327209 84.499847,192.051224 101.419037,170.931427 
	C113.688789,155.615402 126.348595,140.701630 140.978455,127.598122 
	C153.734222,116.173195 166.505417,104.737946 179.746445,93.889008 
	C198.108582,78.844131 218.232971,66.319908 239.079056,55.040394 
	C269.593628,38.529381 301.531769,25.379612 335.109894,16.529718 
	C349.115204,12.838459 363.300690,9.657028 377.567169,7.183366 
	C389.663055,5.086052 401.998047,4.379750 414.211456,2.925470 
	C415.203308,2.807363 416.073364,1.665920 417.000000,0.999997 
M548.001648,404.500000 
	C548.001648,354.502075 547.939087,304.504028 548.032837,254.506271 
	C548.069580,234.904190 543.435974,216.752350 533.189392,199.904053 
	C510.910919,163.271713 461.735199,145.803345 421.470367,160.513123 
	C381.014435,175.292725 356.854401,209.789673 356.837646,252.936096 
	C356.810089,323.933105 356.808533,394.930176 356.875122,465.927124 
	C356.879944,471.067352 357.264679,476.240295 357.914642,481.341736 
	C364.479523,532.871155 414.608765,570.325684 465.942963,562.140259 
	C512.944519,554.645691 546.032166,517.944031 547.733215,470.487946 
	C548.508850,448.849884 547.953369,427.164124 548.001648,404.500000 
M599.002075,465.481018 
	C599.002075,440.863861 599.002075,416.246704 599.002075,391.409790 
	C586.138367,391.409790 573.737610,391.409790 560.829712,391.409790 
	C560.829712,393.440643 560.829773,395.228210 560.829773,397.015747 
	C560.829773,419.345490 561.051514,441.678589 560.717529,464.003326 
	C560.588806,472.612244 560.077087,481.396576 558.228516,489.767212 
	C550.291077,525.709595 529.566711,552.089478 495.794281,566.697449 
	C458.431213,582.858459 422.092438,579.019836 388.962372,555.239197 
	C358.472961,533.353943 344.078491,502.649780 344.009827,465.199646 
	C343.967987,442.370026 344.002106,419.540314 344.002106,396.710632 
	C344.002106,394.951843 344.002106,393.193054 344.002106,391.498657 
	C330.921967,391.498657 318.516998,391.498657 305.829651,391.498657 
	C305.829651,393.654083 305.829651,395.475616 305.829651,397.297119 
	C305.829651,419.126953 306.083435,440.960449 305.767090,462.785675 
	C305.347015,491.769287 311.964447,518.831177 327.127960,543.578247 
	C343.415894,570.160461 365.721863,590.151184 394.677216,601.945190 
	C406.891235,606.920166 419.827698,610.121460 432.737488,614.224854 
	C432.737488,639.023071 432.737488,664.893616 432.737488,691.113647 
	C383.885315,691.113647 335.455933,691.113647 286.955627,691.113647 
	C286.955627,703.873352 286.955627,716.277161 286.955627,728.759583 
	C397.421265,728.759583 507.625977,728.759583 617.783813,728.759583 
	C617.783813,716.033020 617.783813,703.622925 617.783813,690.713379 
	C568.942749,690.713379 520.390076,690.713379 471.721893,690.713379 
	C471.721893,664.595337 471.721893,638.982361 471.721893,613.483887 
	C472.196289,613.188660 472.447327,612.932922 472.741272,612.866089 
	C474.199524,612.534790 475.662506,612.215454 477.135620,611.959900 
	C508.600677,606.500793 535.682190,592.310974 557.686340,569.393738 
	C585.144348,540.796387 598.590027,506.142853 599.002075,465.481018 
z"/>
<path fill="#000000" opacity="1.000000" stroke="none" 
	d="
M416.531342,0.999997 
	C416.073364,1.665920 415.203308,2.807363 414.211456,2.925470 
	C401.998047,4.379750 389.663055,5.086052 377.567169,7.183366 
	C363.300690,9.657028 349.115204,12.838459 335.109894,16.529718 
	C301.531769,25.379612 269.593628,38.529381 239.079056,55.040394 
	C218.232971,66.319908 198.108582,78.844131 179.746445,93.889008 
	C166.505417,104.737946 153.734222,116.173195 140.978455,127.598122 
	C126.348595,140.701630 113.688789,155.615402 101.419037,170.931427 
	C84.499847,192.051224 69.310677,214.327209 57.350281,238.543610 
	C47.553333,258.379669 38.680840,278.732208 30.520803,299.300995 
	C21.195496,322.807098 15.665014,347.504639 11.171129,372.345795 
	C9.074305,383.936615 7.767417,395.743073 7.122825,407.507690 
	C5.999122,428.016663 4.858302,448.584930 5.266968,469.097626 
	C5.569621,484.289062 8.235368,499.441376 9.995082,514.594116 
	C13.167952,541.915344 20.104319,568.388123 29.066494,594.292847 
	C40.084480,626.139709 53.715912,656.873535 72.581970,684.924438 
	C84.786758,703.070984 96.973175,721.417053 111.098396,738.032471 
	C125.280396,754.714661 141.586517,769.643982 157.458618,784.821838 
	C173.717346,800.369263 192.047623,813.350464 210.959732,825.485046 
	C237.136505,842.280945 264.528076,856.711304 293.942535,866.976990 
	C309.899231,872.545898 325.916107,878.108093 342.237793,882.415466 
	C356.547638,886.191895 371.246948,888.718262 385.910889,890.862000 
	C399.707001,892.878723 413.657654,894.094421 427.584473,894.891296 
	C442.322357,895.734558 457.167847,896.632629 471.867310,895.786682 
	C498.010529,894.282043 523.941711,890.963684 549.656128,885.361389 
	C590.964844,876.361572 629.884705,861.343323 666.963501,841.410278 
	C689.431335,829.331970 710.402893,814.909790 730.536438,799.167236 
	C749.406250,784.412720 766.569763,767.871399 782.793701,750.431885 
	C800.980713,730.882141 817.548401,709.893372 830.998291,686.704163 
	C840.257568,670.740112 849.732117,654.828369 857.764221,638.241333 
	C871.207153,610.480286 881.414185,581.399597 887.841797,551.203796 
	C891.677795,533.183228 894.006836,514.842407 897.061890,496.653687 
	C897.183105,495.931946 897.806030,495.294464 898.597656,494.808868 
	C899.000000,629.644165 899.000000,764.288330 899.000000,898.966248 
	C599.739197,898.966248 300.478363,898.966248 1.108764,898.966248 
	C1.108764,599.789246 1.108764,300.578400 1.108764,1.000000 
	C139.354004,1.000000 277.708344,1.000000 416.531342,0.999997 
z"/>
<path fill="#000000" opacity="1.000000" stroke="none" 
	d="
M899.000000,402.531342 
	C898.339905,402.410919 897.189575,401.892273 897.093323,401.222168 
	C895.650818,391.184998 894.790955,381.043793 892.905762,371.095337 
	C890.179749,356.709503 887.375183,342.282257 883.465393,328.188599 
	C874.906982,297.338257 863.168091,267.677338 848.087463,239.378708 
	C836.012634,216.720276 822.135010,195.263138 806.490601,174.884674 
	C791.134888,154.882324 774.208435,136.283264 755.586365,119.419006 
	C741.038879,106.244705 725.428467,94.157646 709.650940,82.449226 
	C688.358215,66.648102 665.176270,53.844486 641.153748,42.664330 
	C618.402344,32.075768 595.008545,23.075865 570.606567,17.066660 
	C554.180969,13.021725 537.644531,9.338780 521.021912,6.216509 
	C511.379395,4.405334 501.465057,4.053171 491.681671,2.966578 
	C490.308929,2.814117 488.985596,2.216436 487.819702,1.412420 
	C624.926270,1.000000 761.852478,1.000000 899.000000,1.000000 
	C899.000000,134.687485 899.000000,268.375092 899.000000,402.531342 
z"/>
<path fill="#FFFEFE" opacity="1.000000" stroke="none" 
	d="
M548.001648,405.000000 
	C547.953369,427.164124 548.508850,448.849884 547.733215,470.487946 
	C546.032166,517.944031 512.944519,554.645691 465.942963,562.140259 
	C414.608765,570.325684 364.479523,532.871155 357.914642,481.341736 
	C357.264679,476.240295 356.879944,471.067352 356.875122,465.927124 
	C356.808533,394.930176 356.810089,323.933105 356.837646,252.936096 
	C356.854401,209.789673 381.014435,175.292725 421.470367,160.513123 
	C461.735199,145.803345 510.910919,163.271713 533.189392,199.904053 
	C543.435974,216.752350 548.069580,234.904190 548.032837,254.506271 
	C547.939087,304.504028 548.001648,354.502075 548.001648,405.000000 
M437.305634,195.739990 
	C412.696991,202.115677 395.090088,224.566818 395.045044,250.403580 
	C394.918365,323.061523 394.853333,395.720551 395.218750,468.376892 
	C395.256897,475.964203 397.091675,484.091583 400.199829,491.023682 
	C418.043732,530.820862 470.568909,537.023743 497.593903,502.803101 
	C504.146515,494.505768 508.215881,485.116272 509.098511,473.981750 
	C492.118591,473.981750 475.684235,473.981750 459.045654,473.981750 
	C459.045654,461.201965 459.045654,448.796875 459.045654,435.856445 
	C475.973877,435.856445 492.698883,435.856445 509.442383,435.856445 
	C509.442383,427.109100 509.442383,418.903107 509.442383,410.268585 
	C492.468536,410.268585 475.878540,410.268585 459.242920,410.268585 
	C459.242920,397.301331 459.242920,384.777588 459.242920,371.876129 
	C476.243591,371.876129 492.836609,371.876129 509.570618,371.876129 
	C509.570618,363.414185 509.570618,355.339569 509.570618,346.659882 
	C492.591553,346.659882 475.862305,346.659882 459.111572,346.659882 
	C459.111572,333.620697 459.111572,321.190796 459.111572,308.131592 
	C476.090118,308.131592 492.800720,308.131592 509.529663,308.131592 
	C509.529663,299.422913 509.529663,291.350403 509.529663,282.769226 
	C492.491699,282.769226 475.750214,282.769226 459.149536,282.769226 
	C459.149536,269.824646 459.149536,257.396973 459.149536,244.574188 
	C475.891510,244.574188 492.321259,244.574188 508.757172,244.574188 
	C507.811157,217.128922 477.887238,185.836227 437.305634,195.739990 
z"/>
<path fill="#FFFEFE" opacity="1.000000" stroke="none" 
	d="
M599.002075,465.976379 
	C598.590027,506.142853 585.144348,540.796387 557.686340,569.393738 
	C535.682190,592.310974 508.600677,606.500793 477.135620,611.959900 
	C475.662506,612.215454 474.199524,612.534790 472.741272,612.866089 
	C472.447327,612.932922 472.196289,613.188660 471.721893,613.483887 
	C471.721893,638.982361 471.721893,664.595337 471.721893,690.713379 
	C520.390076,690.713379 568.942749,690.713379 617.783813,690.713379 
	C617.783813,703.622925 617.783813,716.033020 617.783813,728.759583 
	C507.625977,728.759583 397.421265,728.759583 286.955627,728.759583 
	C286.955627,716.277161 286.955627,703.873352 286.955627,691.113647 
	C335.455933,691.113647 383.885315,691.113647 432.737488,691.113647 
	C432.737488,664.893616 432.737488,639.023071 432.737488,614.224854 
	C419.827698,610.121460 406.891235,606.920166 394.677216,601.945190 
	C365.721863,590.151184 343.415894,570.160461 327.127960,543.578247 
	C311.964447,518.831177 305.347015,491.769287 305.767090,462.785675 
	C306.083435,440.960449 305.829651,419.126953 305.829651,397.297119 
	C305.829651,395.475616 305.829651,393.654083 305.829651,391.498657 
	C318.516998,391.498657 330.921967,391.498657 344.002106,391.498657 
	C344.002106,393.193054 344.002106,394.951843 344.002106,396.710632 
	C344.002106,419.540314 343.967987,442.370026 344.009827,465.199646 
	C344.078491,502.649780 358.472961,533.353943 388.962372,555.239197 
	C422.092438,579.019836 458.431213,582.858459 495.794281,566.697449 
	C529.566711,552.089478 550.291077,525.709595 558.228516,489.767212 
	C560.077087,481.396576 560.588806,472.612244 560.717529,464.003326 
	C561.051514,441.678589 560.829773,419.345490 560.829773,397.015747 
	C560.829773,395.228210 560.829712,393.440643 560.829712,391.409790 
	C573.737610,391.409790 586.138367,391.409790 599.002075,391.409790 
	C599.002075,416.246704 599.002075,440.863861 599.002075,465.976379 
z"/>
<path fill="#FF0101" opacity="1.000000" stroke="none" 
	d="
M437.697632,195.599838 
	C477.887238,185.836227 507.811157,217.128922 508.757172,244.574188 
	C492.321259,244.574188 475.891510,244.574188 459.149536,244.574188 
	C459.149536,257.396973 459.149536,269.824646 459.149536,282.769226 
	C475.750214,282.769226 492.491699,282.769226 509.529663,282.769226 
	C509.529663,291.350403 509.529663,299.422913 509.529663,308.131592 
	C492.800720,308.131592 476.090118,308.131592 459.111572,308.131592 
	C459.111572,321.190796 459.111572,333.620697 459.111572,346.659882 
	C475.862305,346.659882 492.591553,346.659882 509.570618,346.659882 
	C509.570618,355.339569 509.570618,363.414185 509.570618,371.876129 
	C492.836609,371.876129 476.243591,371.876129 459.242920,371.876129 
	C459.242920,384.777588 459.242920,397.301331 459.242920,410.268585 
	C475.878540,410.268585 492.468536,410.268585 509.442383,410.268585 
	C509.442383,418.903107 509.442383,427.109100 509.442383,435.856445 
	C492.698883,435.856445 475.973877,435.856445 459.045654,435.856445 
	C459.045654,448.796875 459.045654,461.201965 459.045654,473.981750 
	C475.684235,473.981750 492.118591,473.981750 509.098511,473.981750 
	C508.215881,485.116272 504.146515,494.505768 497.593903,502.803101 
	C470.568909,537.023743 418.043732,530.820862 400.199829,491.023682 
	C397.091675,484.091583 395.256897,475.964203 395.218750,468.376892 
	C394.853333,395.720551 394.918365,323.061523 395.045044,250.403580 
	C395.090088,224.566818 412.696991,202.115677 437.697632,195.599838 
z"/>
</svg>